
<svg class="callgraph" xmlns="http://www.w3.org/2000/svg" xmlns:xlink="http://www.w3.org/1999/xlink" viewBox="0 0 420.5 621">
  <style>:root{--background-color: #f5fffa;--selected-color: #4fe1f4;--edge-color: #548f9e;--edge-incoming-color: #698b69;--edge-outgoing-color: #008acd;--edge-incoming-outgoing-color: black;--cluster-label-bg-color: #e8eaed;--node-bg-color: #f4f5f1;--symbol-default-bg-color: var(--node-bg-color);--symbol-default-border-color: #889f4e;--symbol-default-text-color: #363636;--interface-bg-color: #fff8dc;--interface-border-color: #a69348;--module-bg-color: #ffebcd;--module-border-color: #a67e43;--constructor-bg-color: #ffdab9;--constructor-border-color: #a66e3c;--method-bg-color: #fff8c5;--method-border-color: #d4a72c;--function-bg-color: #bafbd0;--function-border-color: #4ac26b;--struct-bg-color: #ddf4ff;--struct-border-color: #54aeff;--type-icon-color: #8969da;--property-icon-color: #5f9348}.callgraph{--bold-border: 3.2;width:100%;height:100%;outline:none;cursor:default;-webkit-user-select:none;user-select:none}.callgraph>#graph0>polygon:first-of-type{fill:var(--background-color)}.callgraph>#graph0>#faded-group>:where(.node,.cluster){opacity:.2}.callgraph>#graph0>#faded-group>.edge{opacity:.05}.callgraph .edge>path:not(.hover-path){stroke:var(--edge-color);stroke-width:3}.callgraph .edge>polygon{stroke:var(--edge-color);fill:var(--edge-color)}.callgraph .edge>path.hover-path{stroke:transparent;stroke-width:15}.callgraph .edge.impl>path{stroke-dasharray:8,3}.callgraph .edge.impl>polygon{stroke-width:2;fill:none!important}.callgraph .edge:hover{--edge-color: var(--selected-color)}.callgraph .edge.incoming{--edge-color: var(--edge-incoming-color)}.callgraph .edge.outgoing{--edge-color: var(--edge-outgoing-color)}.callgraph .edge.incoming.outgoing{--edge-color: var(--edge-incoming-outgoing-color)}.callgraph .cluster polygon{stroke-width:1.6}.callgraph .cluster .cluster-label{cursor:pointer;fill:var(--cluster-label-bg-color);rx:18px}.callgraph .cluster text{pointer-events:none}.callgraph .cluster.selected{--cluster-label-bg-color: color-mix(in srgb, var(--selected-color) 30%, transparent)}.callgraph .cluster.selected polygon{stroke-width:var(--bold-border);stroke:var(--selected-color)}.callgraph .node>rect{rx:20px;fill:var(--node-bg-color);filter:url(#shadow)}.callgraph .node.selected>rect{stroke:var(--selected-color);stroke-width:var(--bold-border)}.callgraph .node>.title{cursor:pointer}.callgraph .node>.title>text{font-weight:700}.callgraph .cell{--bg-color: var(--symbol-default-bg-color);--border-color: var(--symbol-default-border-color);--border-width: 1.6}.callgraph .cell>rect{rx:10px;fill:var(--bg-color);stroke:var(--border-color);stroke-width:var(--border-width)}.callgraph .cell>text{fill:var(--symbold-default-text-color)}.callgraph .cell:where(.highlight,.selected,:not(:has(>.cell:hover)):hover){--border-width: var(--bold-border)}.callgraph .cell.highlight>rect{stroke:url(#highlightGradient)}.callgraph .cell.selected>rect{filter:drop-shadow(3px 3px 6px var(--border-color))}.callgraph .cell.interface{--bg-color: var(--interface-bg-color);--border-color: var(--interface-border-color)}.callgraph .cell.interface>rect{stroke-dasharray:7,5}.callgraph .cell.module{--bg-color: var(--module-bg-color);--border-color: var(--module-border-color)}.callgraph .cell.constructor{--bg-color: var(--constructor-bg-color);--border-color: var(--constructor-border-color)}.callgraph .cell.function{--bg-color: var(--function-bg-color);--border-color: var(--function-border-color)}.callgraph .cell.method{--bg-color: var(--method-bg-color);--border-color: var(--method-border-color)}.callgraph .cell:where(.class,.struct,.enum){--bg-color: var(--struct-bg-color);--border-color: var(--struct-border-color)}.callgraph .cell:where(.class,.struct,.enum)>rect{rx:unset}.callgraph .cell:where(.class,.struct,.enum)>text{transform:translateY(1.5px)}.callgraph .cell:where(.class,.struct,.enum)>text:first-of-type{fill:var(--type-icon-color)}.callgraph .cell:where(.field,.property)>rect{rx:unset}.callgraph .cell:where(.field,.property)>text:first-of-type{font-style:italic;fill:var(--property-icon-color)}
</style>
  
<g id="graph0" class="graph" transform="translate(0 621)">
<polygon fill="white" stroke="none" points="-4,4 -4,-617 416.5,-617 416.5,4 -4,4"></polygon>
<g id="clust1" class="cluster">

<polygon fill="none" stroke="black" points="126.5,-8 126.5,-605 404.5,-605 404.5,-8 126.5,-8"></polygon>
<rect x="188.14999389648438" y="-601" width="154.70001220703125" height="35.20001220703125" class="cluster-label"></rect>
<text text-anchor="start" x="196.15" y="-578.6" font-family="Arial" font-size="16.00">Simple3DGame/src</text>
</g>
<!-- 1 -->
<g id="1" class="node" data-path="/F:/Simple3DGame/src/main.cpp">

<rect x="134.5" y="-553.9000244140625" width="262" height="537.8000240325928"></rect>
<g id="1_0" class="title">
<text text-anchor="start" x="179.7" y="-521.5" font-family="Arial" font-size="16.00"> &#160;&#160;&#160;&#160;&#160;&#160;&#160;&#160;&#160;&#160;&#160;main.cpp &#160;&#160;&#160;&#160;&#160;&#160;&#160;&#160;&#160;&#160;&#160;</text>

</g>
<g id="1:36_11" data-kind="10" class="cell enum">
<rect x="150.5" y="-502.70001220703125" width="230" height="27.20001220703125"></rect>
<text text-anchor="start" x="189.91" y="-485.3" font-family="Arial" font-weight="bold" font-size="16.00">E</text>
<text text-anchor="start" x="200.59" y="-485.3" font-family="Arial" font-size="16.00"> &#160;CameraViewMode</text>

</g>
<g id="1:55_6" data-kind="5" class="cell class">
<rect x="150.5" y="-467.5" width="230" height="219.1999969482422"></rect>
<text text-anchor="start" x="192.14" y="-442.1" font-family="Arial" font-weight="bold" font-size="16.00">C</text>
<text text-anchor="start" x="203.7" y="-442.1" font-family="Arial" font-size="16.00"> &#160;CameraController</text>
<g id="1:57_0" data-kind="9" class="cell constructor">
<rect x="158.5" y="-424.29998779296875" width="214" height="27.199981689453125"></rect>
<text text-anchor="start" x="202.37" y="-405.9" font-family="Arial" font-size="16.00">CameraController</text>

</g>
<g id="1:68_5" data-kind="6" class="cell method">
<rect x="158.5" y="-389.1000061035156" width="214" height="27.20001220703125"></rect>
<text text-anchor="start" x="241.03" y="-370.7" font-family="Arial" font-size="16.00">update</text>

</g>
<g id="1:152_5" data-kind="6" class="cell method">
<rect x="158.5" y="-353.8999938964844" width="214" height="27.199981689453125"></rect>
<text text-anchor="start" x="206.79" y="-335.5" font-family="Arial" font-size="16.00">isDebugEnabled</text>

</g>
<g id="1:153_5" data-kind="6" class="cell method">
<rect x="158.5" y="-318.70001220703125" width="214" height="27.20001220703125"></rect>
<text text-anchor="start" x="218.8" y="-300.3" font-family="Arial" font-size="16.00">renderDebug</text>

</g>
<g id="1:157_5" data-kind="6" class="cell method">
<rect x="158.5" y="-283.5" width="214" height="27.20001220703125"></rect>
<text text-anchor="start" x="184.12" y="-265.1" font-family="Arial" font-size="16.00">updateCameraPosition</text>

</g>

</g>
<g id="1:219_7" data-kind="23" class="cell struct">
<rect x="150.5" y="-240.3000030517578" width="230" height="27.199996948242188"></rect>
<text text-anchor="start" x="196.15" y="-222.9" font-family="Arial" font-weight="bold" font-size="16.00">S</text>
<text text-anchor="start" x="206.82" y="-222.9" font-family="Arial" font-size="16.00"> &#160;WorldRaycastHit</text>

</g>
<g id="1:226_16" data-kind="12" class="cell function">
<rect x="150.5" y="-205.10000610351562" width="230" height="27.20001220703125"></rect>
<text text-anchor="start" x="215.71" y="-186.7" font-family="Arial" font-size="16.00">RaycastWorld</text>

</g>
<g id="1:260_8" data-kind="12" class="cell function">
<rect x="150.5" y="-169.89999389648438" width="230" height="27.199996948242188"></rect>
<text text-anchor="start" x="179.24" y="-151.5" font-family="Arial" font-size="16.00">GetMouseWorldPosition</text>

</g>
<g id="1:269_5" data-kind="12" class="cell function">
<rect x="150.5" y="-134.6999969482422" width="230" height="27.199996948242188"></rect>
<text text-anchor="start" x="219.69" y="-116.3" font-family="Arial" font-size="16.00">renderScene</text>

</g>
<g id="1:404_5" data-kind="12" class="cell function">
<rect x="150.5" y="-99.5" width="230" height="27.199996948242188"></rect>
<text text-anchor="start" x="219.7" y="-81.1" font-family="Arial" font-size="16.00">processInput</text>

</g>
<g id="1:757_4" data-kind="12" class="cell function">
<rect x="150.5" y="-64.30000305175781" width="230" height="27.20000457763672"></rect>
<text text-anchor="start" x="248.16" y="-45.9" font-family="Arial" font-size="16.00">main</text>

</g>
</g>
<!-- 1&#45;&gt;1 -->
<g id="1:757_4-1:152_5" class="edge" data-from="1:757_4" data-to="1:152_5">

<path fill="none" stroke="black" d="M150.69,-51.06C75.84,-61.24 3.5,-96.52 3.5,-195.5 3.5,-290.73 70.47,-327 142.2,-338.67"></path>
<polygon fill="black" stroke="black" points="141.46,-343.87 157.03,-340.71 142.89,-333.46 141.46,-343.87"></polygon>
<text text-anchor="middle" x="1.75" y="-280.8" font-family="Times,serif" font-size="14.00"> </text>
<path fill="none" stroke="black" d="M150.69,-51.06C75.84,-61.24 3.5,-96.52 3.5,-195.5 3.5,-290.73 70.47,-327 142.2,-338.67" class="hover-path"></path></g>
<!-- 1&#45;&gt;1 -->
<g id="1:757_4-1:404_5" class="edge" data-from="1:757_4" data-to="1:404_5">

<path fill="none" stroke="black" d="M150.69,-45.3C75.84,-45.08 3.5,-51.18 3.5,-68.3 3.5,-84.18 65.76,-90.58 134.53,-91.24"></path>
<polygon fill="black" stroke="black" points="134.16,-96.49 149.18,-91.29 134.19,-85.99 134.16,-96.49"></polygon>
<text text-anchor="middle" x="1.75" y="-280.8" font-family="Times,serif" font-size="14.00"> </text>
<path fill="none" stroke="black" d="M150.69,-45.3C75.84,-45.08 3.5,-51.18 3.5,-68.3 3.5,-84.18 65.76,-90.58 134.53,-91.24" class="hover-path"></path></g>
<!-- 1&#45;&gt;1 -->
<g id="1:757_4-1:269_5" class="edge" data-from="1:757_4" data-to="1:269_5">

<path fill="none" stroke="black" d="M150.69,-46.1C75.84,-47.32 3.5,-57.45 3.5,-85.9 3.5,-112.29 65.76,-122.92 134.53,-125.29"></path>
<polygon fill="black" stroke="black" points="134.05,-130.53 149.18,-125.66 134.31,-120.04 134.05,-130.53"></polygon>
<text text-anchor="middle" x="1.75" y="-280.8" font-family="Times,serif" font-size="14.00"> </text>
<path fill="none" stroke="black" d="M150.69,-46.1C75.84,-47.32 3.5,-57.45 3.5,-85.9 3.5,-112.29 65.76,-122.92 134.53,-125.29" class="hover-path"></path></g>
<!-- 1&#45;&gt;1 -->
<g id="1:68_5-1:157_5" class="edge" data-from="1:68_5" data-to="1:157_5">

<path fill="none" stroke="black" d="M158.53,-379.54C80.98,-377.61 3.5,-363.86 3.5,-322.7 3.5,-284.43 70.47,-269.86 142.2,-266.45"></path>
<polygon fill="black" stroke="black" points="142.22,-271.7 157.02,-265.92 141.84,-261.21 142.22,-271.7"></polygon>
<text text-anchor="middle" x="1.75" y="-280.8" font-family="Times,serif" font-size="14.00"> </text>
<path fill="none" stroke="black" d="M158.53,-379.54C80.98,-377.61 3.5,-363.86 3.5,-322.7 3.5,-284.43 70.47,-269.86 142.2,-266.45" class="hover-path"></path></g>
<!-- 1&#45;&gt;1 -->
<g id="1:404_5-1:68_5" class="edge" data-from="1:404_5" data-to="1:68_5">

<path fill="none" stroke="black" d="M150.69,-86.26C75.84,-96.44 3.5,-131.72 3.5,-230.7 3.5,-325.93 70.47,-362.2 142.2,-373.87"></path>
<polygon fill="black" stroke="black" points="141.46,-379.07 157.03,-375.91 142.89,-368.66 141.46,-379.07"></polygon>
<text text-anchor="middle" x="1.75" y="-280.8" font-family="Times,serif" font-size="14.00"> </text>
<path fill="none" stroke="black" d="M150.69,-86.26C75.84,-96.44 3.5,-131.72 3.5,-230.7 3.5,-325.93 70.47,-362.2 142.2,-373.87" class="hover-path"></path></g>
<!-- 1&#45;&gt;1 -->
<g id="1:757_4-1:153_5" class="edge" data-from="1:757_4" data-to="1:153_5">

<path fill="none" stroke="black" d="M150.69,-50.27C75.84,-59 3.5,-90.25 3.5,-177.9 3.5,-262.23 70.47,-294.35 142.2,-304.44"></path>
<polygon fill="black" stroke="black" points="141.52,-309.65 157.03,-306.19 142.75,-299.22 141.52,-309.65"></polygon>
<text text-anchor="middle" x="1.75" y="-280.8" font-family="Times,serif" font-size="14.00"> </text>
<path fill="none" stroke="black" d="M150.69,-50.27C75.84,-59 3.5,-90.25 3.5,-177.9 3.5,-262.23 70.47,-294.35 142.2,-304.44" class="hover-path"></path></g>
<g id="faded-group"></g></g>
<defs><filter id="shadow"><feDropShadow dx="0" dy="0" stdDeviation="4" flood-opacity="0.5"></feDropShadow></filter>
    <linearGradient id="highlightGradient">
      <stop offset="0%" stop-color="var(--edge-incoming-color)"></stop>
      <stop offset="100%" stop-color="var(--edge-outgoing-color)"></stop>
    </linearGradient></defs>
</svg>